<?xml version="1.0" encoding="UTF-8" standalone="no"?>
<!-- Created with Inkscape (http://www.inkscape.org/) -->

<svg
   xmlns:dc="http://purl.org/dc/elements/1.1/"
   xmlns:cc="http://creativecommons.org/ns#"
   xmlns:rdf="http://www.w3.org/1999/02/22-rdf-syntax-ns#"
   xmlns:svg="http://www.w3.org/2000/svg"
   xmlns="http://www.w3.org/2000/svg"
   xmlns:xlink="http://www.w3.org/1999/xlink"
   xmlns:sodipodi="http://sodipodi.sourceforge.net/DTD/sodipodi-0.dtd"
   xmlns:inkscape="http://www.inkscape.org/namespaces/inkscape"
   width="96.75mm"
   height="96.75mm"
   viewBox="0 0 96.75 96.749998"
   version="1.1"
   id="svg8"
   inkscape:version="0.92.0 r"
   sodipodi:docname="garta.svg">
  <defs
     id="defs2">
    <linearGradient
       inkscape:collect="always"
       id="linearGradient4507">
      <stop
         style="stop-color:#ffffff;stop-opacity:0.6875"
         offset="0"
         id="stop4503" />
      <stop
         style="stop-color:#ffffff;stop-opacity:0;"
         offset="1"
         id="stop4505" />
    </linearGradient>
    <filter
       inkscape:collect="always"
       style="color-interpolation-filters:sRGB"
       id="filter4575"
       x="-0.056392836"
       width="1.1127857"
       y="-0.041781709"
       height="1.0835634">
      <feGaussianBlur
         inkscape:collect="always"
         stdDeviation="1.3006621"
         id="feGaussianBlur4577" />
    </filter>
    <radialGradient
       inkscape:collect="always"
       xlink:href="#linearGradient4507"
       id="radialGradient4506"
       cx="100.54163"
       cy="143.54166"
       fx="100.54163"
       fy="143.54166"
       r="47.625"
       gradientUnits="userSpaceOnUse"
       gradientTransform="matrix(1.2615942,0.01079988,-0.01090743,1.2741582,-24.735436,-40.438972)" />
  </defs>
  <sodipodi:namedview
     id="base"
     pagecolor="#ffffff"
     bordercolor="#666666"
     borderopacity="1.0"
     inkscape:pageopacity="0.0"
     inkscape:pageshadow="2"
     inkscape:zoom="1.4"
     inkscape:cx="296.64661"
     inkscape:cy="121.28395"
     inkscape:document-units="mm"
     inkscape:current-layer="layer1"
     showgrid="false"
     inkscape:window-width="1920"
     inkscape:window-height="1136"
     inkscape:window-x="0"
     inkscape:window-y="27"
     inkscape:window-maximized="1"
     fit-margin-top="0"
     fit-margin-left="0"
     fit-margin-right="0"
     fit-margin-bottom="0"
     showborder="false"
     inkscape:pagecheckerboard="true">
    <inkscape:grid
       type="xygrid"
       id="grid4485"
       originx="-52.166666"
       originy="-105.08333" />
  </sodipodi:namedview>
  <metadata
     id="metadata5">
    <rdf:RDF>
      <cc:Work
         rdf:about="">
        <dc:format>image/svg+xml</dc:format>
        <dc:type
           rdf:resource="http://purl.org/dc/dcmitype/StillImage" />
        <dc:title />
      </cc:Work>
    </rdf:RDF>
  </metadata>
  <g
     inkscape:label="Garta icon"
     inkscape:groupmode="layer"
     id="layer1"
     transform="translate(-52.166661,-95.166672)">
    <g
       id="g4559"
       inkscape:label="checkboard">
      <path
         inkscape:connector-curvature="0"
         id="rect4585"
         d="m 63.499962,95.916656 c -5.86317,0 -10.583333,4.720164 -10.583333,10.583334 v 37.04167 H 100.54163 V 95.916656 Z"
         style="opacity:1;fill:#393f70;fill-opacity:1;stroke:none;stroke-width:1.81985438;stroke-linecap:round;stroke-linejoin:round;stroke-miterlimit:4;stroke-dasharray:none;stroke-dashoffset:0;stroke-opacity:1" />
      <path
         inkscape:connector-curvature="0"
         id="rect4587"
         d="m 100.54163,143.54166 v 47.625 h 37.04166 c 5.86318,0 10.58334,-4.72018 10.58334,-10.58334 v -37.04166 z"
         style="opacity:1;fill:#393f70;fill-opacity:1;stroke:none;stroke-width:1.81985438;stroke-linecap:round;stroke-linejoin:round;stroke-miterlimit:4;stroke-dasharray:none;stroke-dashoffset:0;stroke-opacity:1" />
      <path
         inkscape:connector-curvature="0"
         id="rect4581"
         d="m 52.916629,143.54166 v 37.04166 c 0,5.86316 4.720166,10.58334 10.583333,10.58334 h 37.041668 v -47.625 z"
         style="opacity:1;fill:#4953a4;fill-opacity:1;stroke:none;stroke-width:1.81985438;stroke-linecap:round;stroke-linejoin:round;stroke-miterlimit:4;stroke-dasharray:none;stroke-dashoffset:0;stroke-opacity:1" />
      <path
         inkscape:connector-curvature="0"
         id="rect4583"
         d="m 100.54163,95.916656 v 47.625004 h 47.625 v -37.04167 c 0,-5.86317 -4.72017,-10.583334 -10.58334,-10.583334 z"
         style="opacity:1;fill:#4953a4;fill-opacity:1;stroke:none;stroke-width:1.81985438;stroke-linecap:round;stroke-linejoin:round;stroke-miterlimit:4;stroke-dasharray:none;stroke-dashoffset:0;stroke-opacity:1" />
    </g>
    <rect
       style="opacity:1;fill:url(#radialGradient4506);fill-opacity:1;stroke:none;stroke-width:2.95918179;stroke-linecap:round;stroke-linejoin:round;stroke-miterlimit:4;stroke-dasharray:none;stroke-dashoffset:0;stroke-opacity:1"
       id="rect4501"
       width="95.25"
       height="95.25"
       x="52.91666"
       y="95.916672"
       ry="10.297297"
       inkscape:label="gradient" />
    <path
       inkscape:label="island glow"
       sodipodi:nodetypes="cssccssscscscsscscccscsccsccscscc"
       inkscape:connector-curvature="0"
       id="path4501"
       d="M 90.470735,170.44788 C 90.203463,167.90882 78.577241,153.07536 76.706353,144.79 c -1.870887,-8.28535 -3.207234,-13.0962 -2.672693,-17.63979 0.534537,-4.54358 5.84652,-14.03164 7.34991,-16.03617 1.637025,-2.20497 4.543582,-5.24516 6.280835,-5.07812 2.27179,0.16705 8.318763,10.95805 9.053753,13.22984 0.704126,2.17639 2.839739,14.83346 1.102487,18.4416 -1.737251,3.60814 -1.159952,3.34405 -2.050928,3.37746 -1.558057,0.0584 -0.708708,-2.50409 -1.464659,-3.2128 -0.47247,-0.42522 -2.743685,-0.0689 -4.751684,-0.58271 -2.007998,-0.51381 -3.752781,-1.89775 -4.508733,-1.25992 -1.322916,1.27566 -1.464656,3.26004 0.141743,5.05543 1.606397,1.79539 5.24442,1.46466 6.520087,3.2128 1.27567,1.74814 0.566965,2.64583 1.46466,3.73251 0.897694,1.08668 1.937128,1.2993 2.315104,1.96076 0.377976,0.66146 -0.330729,1.20479 0.283482,1.9135 0.614212,0.7087 7.948523,3.50708 13.181923,-1.84264 2.12611,-2.17336 4.11049,-3.23642 3.87425,-4.63021 -0.44889,-2.83482 -1.25204,-1.18117 -2.29148,-2.48046 -1.5119,-1.72452 -1.32292,-3.68527 -1.63002,-5.74052 -0.21261,-1.07487 1.38788,-2.87025 2.01391,-5.92064 0.63562,-3.09716 2.19108,-7.07229 2.75804,-7.73375 1.13393,-1.32291 4.86644,-2.69308 7.37053,-2.50409 2.5041,0.18899 7.32329,4.91369 7.74852,8.17374 0.42522,3.26004 1.13392,11.33928 -0.8977,15.21354 -2.03162,3.87425 -5.05543,5.85863 -8.22098,6.47284 -3.16555,0.61421 -6.47284,0.33073 -8.94975,2.81861 0,0 -3.85419,3.3235 -5.08262,6.06383 -1.22842,2.74033 -2.14422,3.30332 -2.41149,6.10965 -0.26727,2.80633 0.86863,13.4303 -1.87088,14.56619 -2.739515,1.1359 -3.207238,-1.67043 -5.479027,-1.67043 -2.271792,0 -6.654413,0.70291 -7.323741,0.0454 -0.46471,-0.53457 2.178802,-5.85851 1.911533,-8.39757 z"
       style="opacity:1;fill:#000000;fill-opacity:1;fill-rule:evenodd;stroke:#000000;stroke-width:3;stroke-linecap:butt;stroke-linejoin:miter;stroke-miterlimit:4;stroke-dasharray:none;stroke-opacity:1;filter:url(#filter4575)" />
    <path
       style="fill:#ffe69b;fill-opacity:1;fill-rule:evenodd;stroke:none;stroke-width:1;stroke-linecap:butt;stroke-linejoin:miter;stroke-miterlimit:4;stroke-dasharray:none;stroke-opacity:1"
       d="M 90.470735,170.44788 C 90.203463,167.90882 78.577241,153.07536 76.706353,144.79 c -1.870887,-8.28535 -3.207234,-13.0962 -2.672693,-17.63979 0.534537,-4.54358 5.84652,-14.03164 7.34991,-16.03617 1.637025,-2.20497 4.543582,-5.24516 6.280835,-5.07812 2.27179,0.16705 8.318763,10.95805 9.053753,13.22984 0.704126,2.17639 2.839739,14.83346 1.102487,18.4416 -1.737251,3.60814 -1.159952,3.34405 -2.050928,3.37746 -1.558057,0.0584 -0.708708,-2.50409 -1.464659,-3.2128 -0.47247,-0.42522 -2.743685,-0.0689 -4.751684,-0.58271 -2.007998,-0.51381 -3.752781,-1.89775 -4.508733,-1.25992 -1.322916,1.27566 -1.464656,3.26004 0.141743,5.05543 1.606397,1.79539 5.24442,1.46466 6.520087,3.2128 1.27567,1.74814 0.566965,2.64583 1.46466,3.73251 0.897694,1.08668 1.937128,1.2993 2.315104,1.96076 0.377976,0.66146 -0.330729,1.20479 0.283482,1.9135 0.614212,0.7087 7.948523,3.50708 13.181923,-1.84264 2.12611,-2.17336 4.11049,-3.23642 3.87425,-4.63021 -0.44889,-2.83482 -1.25204,-1.18117 -2.29148,-2.48046 -1.5119,-1.72452 -1.32292,-3.68527 -1.63002,-5.74052 -0.21261,-1.07487 1.38788,-2.87025 2.01391,-5.92064 0.63562,-3.09716 2.19108,-7.07229 2.75804,-7.73375 1.13393,-1.32291 4.86644,-2.69308 7.37053,-2.50409 2.5041,0.18899 7.32329,4.91369 7.74852,8.17374 0.42522,3.26004 1.13392,11.33928 -0.8977,15.21354 -2.03162,3.87425 -5.05543,5.85863 -8.22098,6.47284 -3.16555,0.61421 -6.47284,0.33073 -8.94975,2.81861 0,0 -3.85419,3.3235 -5.08262,6.06383 -1.22842,2.74033 -2.14422,3.30332 -2.41149,6.10965 -0.26727,2.80633 0.86863,13.4303 -1.87088,14.56619 -2.739515,1.1359 -3.207238,-1.67043 -5.479027,-1.67043 -2.271792,0 -6.654413,0.70291 -7.323741,0.0454 -0.46471,-0.53457 2.178802,-5.85851 1.911533,-8.39757 z"
       id="path4498"
       inkscape:connector-curvature="0"
       sodipodi:nodetypes="cssccssscscscsscscccscsccsccscscc"
       inkscape:label="island" />
    <rect
       style="display:inline;opacity:1;fill:none;fill-opacity:1;stroke:#000000;stroke-width:1.5;stroke-linecap:round;stroke-linejoin:round;stroke-miterlimit:4;stroke-dasharray:none;stroke-dashoffset:0;stroke-opacity:1"
       id="rect4509"
       width="95.25"
       height="95.25"
       x="52.916664"
       y="95.916672"
       ry="10.583333"
       transform="translate(-3.4291812e-6)"
       inkscape:label="border" />
  </g>
</svg>
